<svg xmlns="http://www.w3.org/2000/svg" width="24" height="24" viewBox="0 0 24 24">
  <g id="noun_hamburger_menu_2254164" data-name="noun_hamburger menu_2254164" transform="translate(-14.416 -20.5)">
    <g id="Grupo_323" data-name="Grupo 323" transform="translate(14.416 20.5)">
      <g id="Grupo_322" data-name="Grupo 322" transform="translate(0 0)">
        <path id="Caminho_205" data-name="Caminho 205" d="M16.439,24.349H36.393a1.927,1.927,0,1,0,0-3.849H16.439a1.927,1.927,0,1,0,0,3.849Z" transform="translate(-14.416 -20.5)" fill="#f5f6f6"/>
        <path id="Caminho_206" data-name="Caminho 206" d="M36.393,44H16.439a1.927,1.927,0,1,0,0,3.849H36.393a1.927,1.927,0,1,0,0-3.849Z" transform="translate(-14.416 -33.925)" fill="#f5f6f6"/>
        <path id="Caminho_207" data-name="Caminho 207" d="M36.393,67.5H16.439a1.927,1.927,0,1,0,0,3.849H36.393a1.927,1.927,0,1,0,0-3.849Z" transform="translate(-14.416 -47.349)" fill="#f5f6f6"/>
      </g>
    </g>
  </g>
</svg>
